<?xml version="1.0" encoding="UTF-8"?>
<svg width="14px" height="14px" viewBox="0 0 14 14" version="1.1" xmlns="http://www.w3.org/2000/svg" xmlns:xlink="http://www.w3.org/1999/xlink">
    <title>Shape</title>
    <g id="HomePage" stroke="none" stroke-width="1" fill="none" fill-rule="evenodd">
        <g id="Extra-Large-Copy-3" transform="translate(-1097.000000, -719.000000)" fill="#8594B3" fill-rule="nonzero">
            <path d="M1104,729.128125 C1103.88333,729.128125 1103.77396,729.10975 1103.67188,729.073 C1103.56979,729.036833 1103.475,728.975 1103.3875,728.8875 L1100.2375,725.7375 C1100.07708,725.577083 1099.99688,725.372917 1099.99688,725.125 C1099.99688,724.877083 1100.07708,724.672917 1100.2375,724.5125 C1100.39792,724.352083 1100.60558,724.268083 1100.8605,724.2605 C1101.116,724.2535 1101.32396,724.330208 1101.48438,724.490625 L1103.125,726.13125 L1103.125,719.875 C1103.125,719.627083 1103.209,719.419125 1103.377,719.251125 C1103.54442,719.083708 1103.75208,719 1104,719 C1104.24792,719 1104.45588,719.083708 1104.62387,719.251125 C1104.79129,719.419125 1104.875,719.627083 1104.875,719.875 L1104.875,726.13125 L1106.51562,724.490625 C1106.67604,724.330208 1106.884,724.2535 1107.1395,724.2605 C1107.39442,724.268083 1107.60208,724.352083 1107.7625,724.5125 C1107.92292,724.672917 1108.00312,724.877083 1108.00312,725.125 C1108.00312,725.372917 1107.92292,725.577083 1107.7625,725.7375 L1104.6125,728.8875 C1104.525,728.975 1104.43021,729.036833 1104.32812,729.073 C1104.22604,729.10975 1104.11667,729.128125 1104,729.128125 L1104,729.128125 Z M1098.75,733 C1098.26875,733 1097.85692,732.828792 1097.5145,732.486375 C1097.1715,732.143375 1097,731.73125 1097,731.25 L1097,729.5 C1097,729.252083 1097.08371,729.044125 1097.25113,728.876125 C1097.41912,728.708708 1097.62708,728.625 1097.875,728.625 C1098.12292,728.625 1098.33088,728.708708 1098.49887,728.876125 C1098.66629,729.044125 1098.75,729.252083 1098.75,729.5 L1098.75,731.25 L1109.25,731.25 L1109.25,729.5 C1109.25,729.252083 1109.334,729.044125 1109.502,728.876125 C1109.66942,728.708708 1109.87708,728.625 1110.125,728.625 C1110.37292,728.625 1110.58058,728.708708 1110.748,728.876125 C1110.916,729.044125 1111,729.252083 1111,729.5 L1111,731.25 C1111,731.73125 1110.82879,732.143375 1110.48637,732.486375 C1110.14338,732.828792 1109.73125,733 1109.25,733 L1098.75,733 Z" id="Shape"></path>
        </g>
    </g>
</svg>