<?xml version="1.0" encoding="UTF-8"?>
<svg width="18px" height="18px" viewBox="0 0 18 18" version="1.1" xmlns="http://www.w3.org/2000/svg" xmlns:xlink="http://www.w3.org/1999/xlink">
    <title>mdi:refresh-circle</title>
    <g id="HomePage" stroke="none" stroke-width="1" fill="none" fill-rule="evenodd">
        <g id="Extra-Large-Copy-2" transform="translate(-777.000000, -486.000000)">
            <g id="mdi:refresh-circle" transform="translate(777.000000, 486.000000)">
                <rect id="ViewBox" x="0" y="0" width="18" height="18"></rect>
                <path d="M9.5,1 C5.35786438,1 2,4.35786438 2,8.5 C2,12.6421356 5.35786438,16 9.5,16 C13.6421356,16 17,12.6421356 17,8.5 C17,6.51087633 16.2098237,4.60322198 14.8033009,3.19669914 C13.396778,1.7901763 11.4891237,1 9.5,1 M14,7.75 L10.25,7.75 L11.6075,6.3925 C11.0534066,5.82398483 10.2938662,5.50232895 9.5,5.49999765 C7.93974903,5.49493777 6.63608046,6.68669152 6.50145486,8.24113182 C6.36682925,9.79557213 7.44619445,11.1937136 8.98408376,11.4569724 C10.5219731,11.7202312 12.004927,10.7607123 12.395,9.25 L13.9325,9.25 C13.5344427,11.6049314 11.3660076,13.2386821 8.99262713,12.9718182 C6.61924664,12.7049543 4.86776971,10.6304469 5.00261909,8.24592035 C5.13746847,5.86139378 7.11166472,3.99758011 9.5,3.99999765 C10.6915539,4.00149978 11.8323239,4.48267766 12.665,5.335 L14,3.99999765 L14,7.75 Z" id="Shape" fill="#8594B3" fill-rule="nonzero"></path>
            </g>
        </g>
    </g>
</svg>