<?xml version="1.0" encoding="UTF-8"?>
<svg width="20px" height="20px" viewBox="0 0 20 20" version="1.1" xmlns="http://www.w3.org/2000/svg" xmlns:xlink="http://www.w3.org/1999/xlink">
    <title>ic:baseline-verified</title>
    <g id="HomePage" stroke="none" stroke-width="1" fill="none" fill-rule="evenodd">
        <g id="Extra-Large-Copy" transform="translate(-638.000000, -671.000000)">
            <g id="ic:baseline-verified" transform="translate(638.000000, 671.000000)">
                <rect id="ViewBox" x="0" y="0" width="20" height="20"></rect>
                <path d="M19,10 L17.0036364,7.60857143 L17.2818182,4.44571429 L14.3281818,3.74285714 L12.7818182,1 L10,2.25142857 L7.21818182,1 L5.67181818,3.73428571 L2.71818182,4.42857143 L2.99636364,7.6 L1,10 L2.99636364,12.3914286 L2.71818182,15.5628571 L5.67181818,16.2657143 L7.21818182,19 L10,17.74 L12.7818182,18.9914286 L14.3281818,16.2571429 L17.2818182,15.5542857 L17.0036364,12.3914286 L19,10 Z M8.43727273,14.0457143 L5.32818182,10.78 L6.53909091,9.51142857 L8.43727273,11.5085714 L13.2236364,6.47714286 L14.4345455,7.74571429 L8.43727273,14.0457143 Z" id="Shape" fill="#8594B3" fill-rule="nonzero"></path>
            </g>
        </g>
    </g>
</svg>